<svg width="22" height="21" viewBox="0 0 22 21" fill="none" xmlns="http://www.w3.org/2000/svg">
    <path d="M6.6812 19.5167H2.97747C2.73583 19.5167 2.50408 19.4207 2.33322 19.2498C2.16235 19.079 2.06636 18.8472 2.06636 18.6056V14.9019C2.06636 14.7506 2.00626 14.6055 1.8993 14.4986C1.79233 14.3916 1.64725 14.3315 1.49598 14.3315C1.34471 14.3315 1.19963 14.3916 1.09267 14.4986C0.985703 14.6055 0.92561 14.7506 0.92561 14.9019V18.6056C0.92561 19.1498 1.14179 19.6717 1.52659 20.0565C1.91139 20.4413 2.43329 20.6575 2.97747 20.6575H6.6812C6.83247 20.6575 6.97755 20.5974 7.08451 20.4904C7.19148 20.3834 7.25157 20.2384 7.25157 20.0871C7.25157 19.9358 7.19148 19.7907 7.08451 19.6838C6.97755 19.5768 6.83247 19.5167 6.6812 19.5167Z" fill="#186788" stroke="#186788" stroke-width="0.4"/>
    <path d="M1.49598 6.58348C1.64725 6.58348 1.79233 6.52339 1.8993 6.41642C2.00626 6.30946 2.06636 6.16438 2.06636 6.01311V2.30938C2.06636 2.06774 2.16235 1.83599 2.33322 1.66512C2.50408 1.49426 2.73583 1.39826 2.97747 1.39826H6.6812C6.83247 1.39826 6.97755 1.33817 7.08451 1.23121C7.19148 1.12424 7.25157 0.979164 7.25157 0.827892C7.25157 0.67662 7.19148 0.531544 7.08451 0.424578C6.97755 0.317612 6.83247 0.25752 6.6812 0.25752H2.97747C2.43329 0.25752 1.91139 0.473697 1.52659 0.858496C1.14179 1.2433 0.92561 1.76519 0.92561 2.30938V6.01311C0.92561 6.16438 0.985703 6.30946 1.09267 6.41642C1.19963 6.52339 1.34471 6.58348 1.49598 6.58348Z" fill="#186788" stroke="#186788" stroke-width="0.4"/>
    <path d="M19.2739 0.25752H15.5701C15.4189 0.25752 15.2738 0.317612 15.1668 0.424578C15.0599 0.531544 14.9998 0.67662 14.9998 0.827892C14.9998 0.979164 15.0599 1.12424 15.1668 1.23121C15.2738 1.33817 15.4189 1.39826 15.5701 1.39826H19.2739C19.5155 1.39826 19.7473 1.49426 19.9181 1.66512C20.089 1.83599 20.185 2.06774 20.185 2.30938V6.01311C20.185 6.16438 20.2451 6.30946 20.352 6.41642C20.459 6.52339 20.6041 6.58348 20.7554 6.58348C20.9066 6.58348 21.0517 6.52339 21.1587 6.41642C21.2656 6.30946 21.3257 6.16438 21.3257 6.01311V2.30938C21.3257 1.76519 21.1096 1.2433 20.7248 0.858496C20.34 0.473697 19.8181 0.25752 19.2739 0.25752Z" fill="#186788" stroke="#186788" stroke-width="0.4"/>
    <path d="M20.7554 14.3315C20.6041 14.3315 20.459 14.3916 20.352 14.4986C20.2451 14.6055 20.185 14.7506 20.185 14.9019V18.6056C20.185 18.8472 20.089 19.079 19.9181 19.2498C19.7473 19.4207 19.5155 19.5167 19.2739 19.5167H15.5701C15.4189 19.5167 15.2738 19.5768 15.1668 19.6838C15.0599 19.7907 14.9998 19.9358 14.9998 20.0871C14.9998 20.2384 15.0599 20.3834 15.1668 20.4904C15.2738 20.5974 15.4189 20.6575 15.5701 20.6575H19.2739C19.8181 20.6575 20.34 20.4413 20.7248 20.0565C21.1096 19.6717 21.3257 19.1498 21.3257 18.6056V14.9019C21.3257 14.7506 21.2656 14.6055 21.1587 14.4986C21.0517 14.3916 20.9066 14.3315 20.7554 14.3315Z" fill="#186788" stroke="#186788" stroke-width="0.4"/>
    <path d="M18.566 10.0541L18.4246 10.1955L18.566 10.0541C18.459 9.94714 18.3139 9.88705 18.1627 9.88705H16.1404V6.01295C16.1404 5.86168 16.0803 5.7166 15.9734 5.60964C15.8664 5.50267 15.7213 5.44258 15.5701 5.44258H6.68112C6.52985 5.44258 6.38477 5.50267 6.27781 5.60964C6.17084 5.7166 6.11075 5.86168 6.11075 6.01295V9.88705H4.08851C3.93724 9.88705 3.79216 9.94714 3.6852 10.0541C3.57823 10.1611 3.51814 10.3062 3.51814 10.4574C3.51814 10.6087 3.57823 10.7538 3.6852 10.8607C3.79216 10.9677 3.93724 11.0278 4.08851 11.0278H6.11075V14.9019C6.11075 15.0532 6.17084 15.1982 6.27781 15.3052C6.38477 15.4122 6.52985 15.4723 6.68112 15.4723H15.5701C15.7213 15.4723 15.8664 15.4122 15.9734 15.3052C16.0803 15.1982 16.1404 15.0532 16.1404 14.9019V11.0278H18.1627C18.3139 11.0278 18.459 10.9677 18.566 10.8607L18.4246 10.7193L18.566 10.8607C18.673 10.7538 18.733 10.6087 18.733 10.4574C18.733 10.3062 18.673 10.1611 18.566 10.0541ZM7.25149 6.58332H14.9997V9.88705H7.25149V6.58332ZM14.9997 14.3315H7.25149V11.0278H14.9997V14.3315Z" fill="#186788" stroke="#186788" stroke-width="0.4"/>
</svg>
