<svg width="29" height="29" viewBox="0 0 29 29" fill="none" xmlns="http://www.w3.org/2000/svg">
<circle cx="14.9691" cy="14.1248" r="14" fill="url(#paint0_linear)"/>
<path d="M14.9692 22.2483C19.4556 22.2483 23.0926 18.6113 23.0926 14.1248C23.0926 9.63835 19.4556 6.00134 14.9692 6.00134C10.4827 6.00134 6.8457 9.63835 6.8457 14.1248C6.8457 18.6113 10.4827 22.2483 14.9692 22.2483Z" fill="#1B1E36"/>
<path d="M14.998 1.91089C13.4867 1.91089 12.2614 7.39217 12.2614 14.1537C12.2614 20.9153 13.4867 26.3966 14.998 26.3966C16.5092 26.3966 17.7346 20.9153 17.7346 14.1537C17.7346 7.39217 16.5092 1.91089 14.998 1.91089ZM15.1869 25.7056C15.0141 25.9361 14.8413 25.7632 14.8413 25.7632C14.1453 24.9568 13.7973 23.4587 13.7973 23.4587C12.58 19.541 12.8697 11.1295 12.8697 11.1295C13.4418 4.45161 14.4825 2.87409 14.8367 2.52386C14.8728 2.48812 14.9205 2.46628 14.9711 2.46218C15.0218 2.45808 15.0723 2.47199 15.1138 2.50146C15.6276 2.86558 16.0586 4.38833 16.0586 4.38833C17.3313 9.1126 17.216 13.5488 17.216 13.5488C17.3313 17.4089 16.5783 21.7298 16.5783 21.7298C15.9987 25.0137 15.1869 25.7056 15.1869 25.7056Z" fill="#6F7390"/>
<path d="M25.6172 8.06105C24.8648 6.74976 19.501 8.41475 13.6332 11.7795C7.76543 15.1442 3.62636 18.935 4.37822 20.2458C5.13007 21.5565 10.4944 19.8921 16.3622 16.5274C22.23 13.1627 26.3691 9.37179 25.6172 8.06105V8.06105ZM5.07239 20.0659C4.78433 20.0296 4.8494 19.7928 4.8494 19.7928C5.20276 18.7881 6.32724 17.7407 6.32724 17.7407C9.12086 14.735 16.5617 10.8006 16.5617 10.8006C22.6381 7.97347 24.5256 8.09275 25.0044 8.22457C25.0535 8.23829 25.0962 8.26896 25.1249 8.31115C25.1536 8.35334 25.1664 8.40432 25.1612 8.45507C25.1036 9.08227 23.9945 10.2135 23.9945 10.2135C20.5323 13.6697 16.6268 15.7777 16.6268 15.7777C13.3359 17.7993 9.21314 19.2955 9.21314 19.2955C6.07614 20.426 5.0725 20.0659 5.0725 20.0659H5.07239Z" fill="#6F7390"/>
<path d="M25.5907 20.2895C26.3489 18.9816 22.2202 15.1734 16.3731 11.7834C10.5259 8.39339 5.16276 6.70779 4.40519 8.01785C3.64762 9.32791 7.7756 13.1339 13.6261 16.5239C19.4767 19.9139 24.8331 21.5996 25.5907 20.2895ZM4.90762 8.52319C4.79562 8.25764 5.03205 8.19369 5.03205 8.19369C6.0788 7.99601 7.54914 8.44648 7.54914 8.44648C11.5492 9.35737 18.6819 13.8253 18.6819 13.8253C24.1736 17.6681 25.0159 19.3608 25.1421 19.8412C25.1549 19.8905 25.1499 19.9428 25.128 19.9887C25.1061 20.0347 25.0686 20.0714 25.0223 20.0925C24.4496 20.3546 22.9159 19.964 22.9159 19.964C18.1887 18.6965 14.4081 16.3742 14.4081 16.3742C11.0113 14.5421 7.6524 11.723 7.6524 11.723C5.10015 9.57409 4.9084 8.52611 4.9084 8.52611L4.90762 8.52319Z" fill="#6F7390"/>
<path d="M14.9691 15.5652C15.7646 15.5652 16.4094 14.9204 16.4094 14.1249C16.4094 13.3294 15.7646 12.6846 14.9691 12.6846C14.1737 12.6846 13.5288 13.3294 13.5288 14.1249C13.5288 14.9204 14.1737 15.5652 14.9691 15.5652Z" fill="#B7B9C8"/>
<path d="M20.8745 9.45812C21.3359 9.45812 21.7099 9.07121 21.7099 8.59393C21.7099 8.11665 21.3359 7.72974 20.8745 7.72974C20.4131 7.72974 20.0391 8.11665 20.0391 8.59393C20.0391 9.07121 20.4131 9.45812 20.8745 9.45812Z" fill="#B7B9C8"/>
<path d="M7.16256 12.3965C7.62394 12.3965 7.99796 12.0096 7.99796 11.5323C7.99796 11.055 7.62394 10.6681 7.16256 10.6681C6.70117 10.6681 6.32715 11.055 6.32715 11.5323C6.32715 12.0096 6.70117 12.3965 7.16256 12.3965Z" fill="#B7B9C8"/>
<path d="M13.2696 22.9972C13.731 22.9972 14.105 22.6103 14.105 22.133C14.105 21.6557 13.731 21.2688 13.2696 21.2688C12.8082 21.2688 12.4342 21.6557 12.4342 22.133C12.4342 22.6103 12.8082 22.9972 13.2696 22.9972Z" fill="#B7B9C8"/>
<defs>
<linearGradient id="paint0_linear" x1="14.9691" y1="0.124756" x2="14.9691" y2="28.1248" gradientUnits="userSpaceOnUse">
<stop stop-color="#494C68"/>
<stop offset="1" stop-color="#2F3146"/>
</linearGradient>
</defs>
</svg>
