<svg width="29" height="29" viewBox="0 0 29 29" fill="none" xmlns="http://www.w3.org/2000/svg">
<circle cx="14.9691" cy="14.2449" r="14" fill="url(#paint0_linear)"/>
<path d="M21.5872 12.5192C21.864 10.6686 20.455 9.67373 18.5283 9.01005L19.1533 6.50312L17.6273 6.12282L17.0188 8.56369C16.6177 8.46372 16.2056 8.36941 15.7962 8.27597L16.409 5.81902L14.8839 5.43872L14.2585 7.94478C13.9264 7.86915 13.6005 7.7944 13.2841 7.71573L13.2858 7.70791L11.1813 7.18244L10.7754 8.8123C10.7754 8.8123 11.9076 9.07177 11.8837 9.08785C12.5017 9.24214 12.6134 9.65112 12.5948 9.97536L11.8828 12.8313C11.9254 12.8422 11.9806 12.8578 12.0415 12.8821C11.9906 12.8695 11.9363 12.8556 11.8802 12.8422L10.8823 16.8429C10.8067 17.0307 10.615 17.3123 10.183 17.2054C10.1982 17.2275 9.07384 16.9285 9.07384 16.9285L8.31628 18.6753L10.3021 19.1703C10.6715 19.2629 11.0336 19.3598 11.39 19.4511L10.7585 21.9867L12.2827 22.367L12.9081 19.8583C13.3245 19.9713 13.7287 20.0757 14.1242 20.1739L13.5009 22.6708L15.0269 23.0511L15.6584 20.5203C18.2605 21.0127 20.2172 20.8141 21.0409 18.4606C21.7045 16.5656 21.0078 15.4725 19.6387 14.7597C20.6358 14.5298 21.3868 13.874 21.5872 12.5192V12.5192ZM18.1006 17.4083C17.629 19.3033 14.4384 18.2789 13.404 18.022L14.242 14.6628C15.2764 14.921 18.5935 15.4321 18.1006 17.4083ZM18.5726 12.4918C18.1423 14.2156 15.4868 13.3398 14.6253 13.1251L15.3851 10.0784C16.2465 10.2931 19.0207 10.6938 18.5726 12.4918V12.4918Z" fill="white"/>
<defs>
<linearGradient id="paint0_linear" x1="14.9691" y1="0.244873" x2="14.9691" y2="28.2449" gradientUnits="userSpaceOnUse">
<stop stop-color="#EBAC45"/>
<stop offset="1" stop-color="#E37F33"/>
</linearGradient>
</defs>
</svg>
