<svg width="29" height="29" viewBox="0 0 29 29" fill="none" xmlns="http://www.w3.org/2000/svg">
<circle cx="14.1403" cy="14.9057" r="14" fill="url(#paint0_linear)"/>
<path d="M10.0138 16.6442L9.16418 17.7136V20.7604H7.01086V10.0964H9.16418V14.7473L9.84534 13.5974L11.8302 10.0964H14.4669L11.4127 14.7839L14.5182 20.7604H11.962L10.0138 16.6442Z" fill="white"/>
<path d="M19.1251 14.8351L18.4366 14.7766C17.8702 14.7766 17.4869 15.0256 17.2867 15.5236V20.7604H15.2067V12.8356H17.1622L17.2208 13.6926C17.548 13.0236 17.9996 12.6891 18.5758 12.6891C18.8102 12.6891 19.0006 12.7209 19.1471 12.7844L19.1251 14.8351Z" fill="white"/>
<path d="M19.0885 19.7057C19.0885 19.3737 19.1984 19.1003 19.4181 18.8854C19.6427 18.6706 19.9332 18.5632 20.2897 18.5632C20.6364 18.5632 20.9244 18.6706 21.1539 18.8854C21.3834 19.0954 21.4982 19.3688 21.4982 19.7057C21.4982 20.0475 21.381 20.3234 21.1466 20.5334C20.9171 20.7385 20.6315 20.841 20.2897 20.841C19.943 20.841 19.6549 20.736 19.4254 20.5261C19.2008 20.3161 19.0885 20.0427 19.0885 19.7057Z" fill="white"/>
<defs>
<linearGradient id="paint0_linear" x1="14.1403" y1="0.905701" x2="14.1403" y2="28.9057" gradientUnits="userSpaceOnUse">
<stop stop-color="#72DEE9"/>
<stop offset="1" stop-color="#40A8BB"/>
</linearGradient>
</defs>
</svg>
