<svg width="29" height="29" viewBox="0 0 29 29" fill="none" xmlns="http://www.w3.org/2000/svg">
<circle cx="14.9691" cy="14.4601" r="14" fill="url(#paint0_linear)"/>
<path d="M16.7456 16.0563H13.0952C13.1362 17.2457 13.4336 18.1344 13.9873 18.7223C14.5479 19.3102 15.3477 19.6041 16.3867 19.6041C17.1387 19.6041 17.8394 19.4913 18.4888 19.2657L18.7759 21.3575C17.9556 21.5558 17.1079 21.6549 16.2329 21.6549C14.4829 21.6549 13.1055 21.1627 12.1006 20.1783C11.0957 19.194 10.5659 17.8199 10.5112 16.0563H8.74756V14.6105H10.5112V13.298H8.74756V11.8522H10.5215C10.6104 10.109 11.1675 8.75549 12.1929 7.79163C13.2183 6.82092 14.5957 6.33557 16.3252 6.33557C17.0498 6.33557 17.8667 6.44153 18.7759 6.65344L18.4888 8.75549C17.7915 8.52307 17.0977 8.40686 16.4072 8.40686C15.375 8.40686 14.582 8.70081 14.0283 9.2887C13.4746 9.87659 13.167 10.7311 13.1055 11.8522H16.7456V13.298H13.0952V14.6105H16.7456V16.0563Z" fill="white"/>
<defs>
<linearGradient id="paint0_linear" x1="14.9691" y1="0.460083" x2="14.9691" y2="28.4601" gradientUnits="userSpaceOnUse">
<stop stop-color="#2C5AB1"/>
<stop offset="1" stop-color="#1C2D82"/>
</linearGradient>
</defs>
</svg>
