<svg width="29" height="29" viewBox="0 0 29 29" fill="none" xmlns="http://www.w3.org/2000/svg">
<circle cx="14.9691" cy="14.3552" r="14" fill="url(#paint0_linear)"/>
<path d="M14.0908 15.2235L14.1626 17.0282C14.1626 17.951 13.9438 18.703 13.5063 19.2841H20.6431L20.6328 21.3553H9.87646V19.2841H10.7173C10.9839 19.2225 11.189 19.0038 11.3325 18.6278C11.4829 18.245 11.5581 17.7426 11.5581 17.1205L11.4863 15.2235H9.83545V13.183H11.4248L11.3428 10.7015C11.3428 9.32068 11.77 8.23035 12.6245 7.43054C13.479 6.63074 14.6001 6.23083 15.9878 6.23083C17.3755 6.23083 18.4658 6.60339 19.2588 7.34851C20.0518 8.09363 20.4482 9.09509 20.4482 10.3529H17.936C17.936 9.70349 17.7549 9.20105 17.3926 8.84558C17.0371 8.48328 16.5381 8.30212 15.8955 8.30212C15.2871 8.30212 14.8052 8.52429 14.4497 8.96863C14.1011 9.41296 13.9268 9.9906 13.9268 10.7015L14.019 13.183H17.208V15.2235H14.0908Z" fill="white"/>
<defs>
<linearGradient id="paint0_linear" x1="14.9691" y1="0.355225" x2="14.9691" y2="28.3552" gradientUnits="userSpaceOnUse">
<stop stop-color="#F1D15B"/>
<stop offset="1" stop-color="#E3A741"/>
</linearGradient>
</defs>
</svg>
