<svg width="29" height="29" viewBox="0 0 29 29" fill="none" xmlns="http://www.w3.org/2000/svg">
<circle cx="14.1403" cy="14.5704" r="14" fill="url(#paint0_linear)"/>
<path d="M10.9674 18.9H9.25061V15.2496H6.70764V18.9H4.98499V10.3688H6.70764V13.8199H9.25061V10.3688H10.9674V18.9Z" fill="white"/>
<path d="M14.7584 15.6071L14.0787 16.4625V18.9H12.3561V10.3688H14.0787V14.0895L14.6237 13.1696L16.2115 10.3688H18.3209L15.8776 14.1188L18.3619 18.9H16.317L14.7584 15.6071Z" fill="white"/>
<path d="M22.1647 16.65C22.1647 16.3258 22.0983 16.0699 21.9655 15.8824C21.8326 15.6949 21.6139 15.5192 21.3092 15.3551C20.7115 15.0895 20.2682 14.8356 19.9791 14.5934C19.694 14.3473 19.4811 14.068 19.3405 13.7555C19.1998 13.4391 19.1295 13.0641 19.1295 12.6305C19.1295 11.9821 19.3092 11.4469 19.6686 11.025C20.028 10.5992 20.5026 10.3473 21.0924 10.2692V9.01526H21.9772V10.2926C22.5631 10.4059 23.0182 10.7028 23.3424 11.1832C23.6705 11.6637 23.8346 12.2731 23.8346 13.0114H22.1764C22.1764 12.5426 22.108 12.193 21.9713 11.9625C21.8385 11.7321 21.6647 11.6168 21.4498 11.6168C21.2428 11.6168 21.0807 11.7067 20.9635 11.8864C20.8463 12.066 20.7877 12.316 20.7877 12.6364C20.7877 12.9137 20.8483 13.1442 20.9694 13.3278C21.0905 13.5114 21.3209 13.7028 21.6608 13.902C22.2858 14.1989 22.735 14.4703 23.0084 14.7164C23.2858 14.9586 23.4908 15.234 23.6237 15.5426C23.7565 15.8512 23.8229 16.2164 23.8229 16.6383C23.8229 17.2985 23.6471 17.8356 23.2955 18.2496C22.9479 18.6637 22.4655 18.9117 21.8483 18.9938V20.1598H20.9694V18.9938C20.2936 18.8961 19.7721 18.609 19.4049 18.1324C19.0377 17.652 18.8541 17.0133 18.8541 16.2164H20.5123C20.5123 16.6774 20.5865 17.0328 20.735 17.2828C20.8834 17.5289 21.1061 17.652 21.403 17.652C21.6412 17.652 21.8268 17.5641 21.9596 17.3883C22.0963 17.2086 22.1647 16.9625 22.1647 16.65Z" fill="white"/>
<defs>
<linearGradient id="paint0_linear" x1="14.1403" y1="0.570435" x2="14.1403" y2="28.5704" gradientUnits="userSpaceOnUse">
<stop stop-color="#3A3D94"/>
<stop offset="1" stop-color="#202267"/>
</linearGradient>
</defs>
</svg>
