<svg width="29" height="29" viewBox="0 0 29 29" fill="none" xmlns="http://www.w3.org/2000/svg">
<circle cx="14.9691" cy="14.6752" r="14" fill="url(#paint0_linear)"/>
<path d="M17.2836 17.9642C17.2836 17.4108 17.1078 16.9551 16.7562 16.597C16.4047 16.2325 15.8187 15.9069 14.9984 15.6205C14.1781 15.3275 13.5401 15.0573 13.0844 14.8099C11.5674 13.9961 10.809 12.7917 10.809 11.1967C10.809 10.1159 11.1377 9.22725 11.7953 8.53064C12.4528 7.83403 13.3448 7.42061 14.4711 7.29041V5.1615H16.0336V7.30994C17.1664 7.4727 18.042 7.95447 18.6605 8.75525C19.279 9.54952 19.5883 10.5847 19.5883 11.8607H17.225C17.225 11.0404 17.0394 10.3959 16.6683 9.92712C16.3038 9.45186 15.8057 9.21423 15.1742 9.21423C14.5492 9.21423 14.0609 9.3835 13.7094 9.72205C13.3578 10.0606 13.182 10.5456 13.182 11.1771C13.182 11.7435 13.3545 12.1993 13.6996 12.5443C14.0511 12.8829 14.6436 13.2051 15.4769 13.5111C16.3103 13.8171 16.9646 14.1003 17.4398 14.3607C17.9151 14.6211 18.3155 14.9206 18.641 15.2592C18.9665 15.5912 19.2172 15.9753 19.3929 16.4115C19.5687 16.8477 19.6566 17.3588 19.6566 17.9447C19.6566 19.045 19.3181 19.9369 18.641 20.6205C17.9704 21.3041 17.0329 21.7077 15.8285 21.8314V23.7357H14.2758V21.8412C12.9867 21.698 11.9939 21.2357 11.2972 20.4545C10.6071 19.6732 10.2621 18.6381 10.2621 17.349H12.6351C12.6351 18.1693 12.8402 18.8041 13.2504 19.2533C13.667 19.7025 14.253 19.9271 15.0082 19.9271C15.7504 19.9271 16.3135 19.7481 16.6976 19.39C17.0883 19.0319 17.2836 18.5567 17.2836 17.9642Z" fill="white"/>
<defs>
<linearGradient id="paint0_linear" x1="14.9691" y1="0.675171" x2="14.9691" y2="28.6752" gradientUnits="userSpaceOnUse">
<stop stop-color="#57A389"/>
<stop offset="1" stop-color="#428966"/>
</linearGradient>
</defs>
</svg>
