<svg width="29" height="29" viewBox="0 0 29 29" fill="none" xmlns="http://www.w3.org/2000/svg">
<circle cx="14.9691" cy="14.2351" r="14" fill="#033B56"/>
<path d="M14.9692 25.7352C21.3205 25.7352 26.4692 20.5865 26.4692 14.2352C26.4692 7.88395 21.3205 2.73523 14.9692 2.73523C8.61796 2.73523 3.46924 7.88395 3.46924 14.2352C3.46924 20.5865 8.61796 25.7352 14.9692 25.7352Z" fill="#F0F0F0"/>
<path d="M6.83738 22.3669C2.34636 17.8758 2.34636 10.5945 6.83738 6.10339C6.83707 6.10389 13.4691 14.2351 13.4691 14.2351L6.83738 22.3669Z" fill="black"/>
<path d="M13.4692 14.2354L4.99445 8.50842C4.7317 8.96514 4.5 9.44185 4.3009 9.93528L8.59135 14.2354L4.30104 18.5358C4.49995 19.0289 4.73143 19.5052 4.994 19.9617L13.4692 14.2354Z" fill="#FFDA44"/>
<path d="M26.3718 12.7352H13.4688L6.83726 6.10364C6.12265 6.81825 5.50178 7.62644 4.99435 8.50831L10.7102 14.2352L4.9939 19.9614C5.50133 20.8435 6.12247 21.6519 6.83726 22.3667L13.4688 15.7352H26.3718C26.4357 15.2442 26.4691 14.7436 26.4691 14.2352C26.4691 13.7268 26.4357 13.2262 26.3718 12.7352Z" fill="#6DA544"/>
<path d="M7.96753 23.3578C9.90676 24.8484 12.3342 25.7352 14.9691 25.7352C20.2825 25.7352 24.7533 22.1315 26.073 17.2352H14.0902L7.96753 23.3578Z" fill="#0052B4"/>
<path d="M26.073 11.2352C24.7533 6.33891 20.2825 2.73523 14.9691 2.73523C12.3342 2.73523 9.90676 3.62203 7.96753 5.11263L14.0901 11.2352H26.073Z" fill="#D80027"/>
</svg>
