<svg width="37" height="42" viewBox="0 0 37 42" fill="white" xmlns="http://www.w3.org/2000/svg">
    <path d="M18.4584 23.5798C19.9009 23.5798 21.0703 22.4104 21.0703 20.9679C21.0703 19.5254 19.9009 18.356 18.4584 18.356C17.0159 18.356 15.8465 19.5254 15.8465 20.9679C15.8465 22.4104 17.0159 23.5798 18.4584 23.5798Z"/>
    <path d="M18.4606 29.3337C19.6139 29.3337 20.5488 28.3988 20.5488 27.2455C20.5488 26.0922 19.6139 25.1572 18.4606 25.1572C17.3073 25.1572 16.3723 26.0922 16.3723 27.2455C16.3723 28.3988 17.3073 29.3337 18.4606 29.3337Z"/>
    <path d="M18.4606 16.7793C19.6139 16.7793 20.5488 15.8443 20.5488 14.691C20.5488 13.5377 19.6139 12.6028 18.4606 12.6028C17.3073 12.6028 16.3723 13.5377 16.3723 14.691C16.3723 15.8443 17.3073 16.7793 18.4606 16.7793Z"/>
    <path d="M18.4603 8.9633C19.1874 8.9633 19.7769 8.37383 19.7769 7.64669C19.7769 6.91954 19.1874 6.33008 18.4603 6.33008C17.7331 6.33008 17.1436 6.91954 17.1436 7.64669C17.1436 8.37383 17.7331 8.9633 18.4603 8.9633Z"/>
    <path d="M18.4598 2.17109C18.9009 2.17109 19.2585 1.81351 19.2585 1.37241C19.2585 0.931311 18.9009 0.57373 18.4598 0.57373C18.0187 0.57373 17.6612 0.931311 17.6612 1.37241C17.6612 1.81351 18.0187 2.17109 18.4598 2.17109Z"/>
    <path d="M18.4598 41.3832C18.9009 41.3832 19.2585 41.0257 19.2585 40.5846C19.2585 40.1435 18.9009 39.7859 18.4598 39.7859C18.0187 39.7859 17.6612 40.1435 17.6612 40.5846C17.6612 41.0257 18.0187 41.3832 18.4598 41.3832Z"/>
    <path d="M1.47205 11.9597C1.91315 11.9597 2.27073 11.6021 2.27073 11.161C2.27073 10.7199 1.91315 10.3623 1.47205 10.3623C1.03095 10.3623 0.67337 10.7199 0.67337 11.161C0.67337 11.6021 1.03095 11.9597 1.47205 11.9597Z"/>
    <path d="M35.4476 11.9597C35.8887 11.9597 36.2463 11.6021 36.2463 11.161C36.2463 10.7199 35.8887 10.3623 35.4476 10.3623C35.0065 10.3623 34.6489 10.7199 34.6489 11.161C34.6489 11.6021 35.0065 11.9597 35.4476 11.9597Z"/>
    <path d="M1.47205 31.5734C1.91315 31.5734 2.27073 31.2159 2.27073 30.7748C2.27073 30.3337 1.91315 29.9761 1.47205 29.9761C1.03095 29.9761 0.67337 30.3337 0.67337 30.7748C0.67337 31.2159 1.03095 31.5734 1.47205 31.5734Z"/>
    <path d="M35.4476 31.5734C35.8887 31.5734 36.2463 31.2159 36.2463 30.7748C36.2463 30.3337 35.8887 29.9761 35.4476 29.9761C35.0065 29.9761 34.6489 30.3337 34.6489 30.7748C34.6489 31.2159 35.0065 31.5734 35.4476 31.5734Z"/>
    <path d="M29.7823 34.8449C30.2234 34.8449 30.581 34.4873 30.581 34.0462C30.581 33.6051 30.2234 33.2476 29.7823 33.2476C29.3412 33.2476 28.9836 33.6051 28.9836 34.0462C28.9836 34.4873 29.3412 34.8449 29.7823 34.8449Z"/>
    <path d="M29.7823 8.68916C30.2234 8.68916 30.581 8.33158 30.581 7.89048C30.581 7.44938 30.2234 7.0918 29.7823 7.0918C29.3412 7.0918 28.9836 7.44938 28.9836 7.89048C28.9836 8.33158 29.3412 8.68916 29.7823 8.68916Z"/>
    <path d="M24.2303 38.0524C24.6714 38.0524 25.029 37.6949 25.029 37.2538C25.029 36.8127 24.6714 36.4551 24.2303 36.4551C23.7892 36.4551 23.4316 36.8127 23.4316 37.2538C23.4316 37.6949 23.7892 38.0524 24.2303 38.0524Z"/>
    <path d="M12.7944 38.0524C13.2355 38.0524 13.5931 37.6949 13.5931 37.2538C13.5931 36.8127 13.2355 36.4551 12.7944 36.4551C12.3533 36.4551 11.9958 36.8127 11.9958 37.2538C11.9958 37.6949 12.3533 38.0524 12.7944 38.0524Z"/>
    <path d="M12.7944 5.4853C13.2355 5.4853 13.5931 5.12772 13.5931 4.68662C13.5931 4.24552 13.2355 3.88794 12.7944 3.88794C12.3533 3.88794 11.9958 4.24552 11.9958 4.68662C11.9958 5.12772 12.3533 5.4853 12.7944 5.4853Z"/>
    <path d="M7.24262 34.8449C7.68371 34.8449 8.04129 34.4873 8.04129 34.0462C8.04129 33.6051 7.68371 33.2476 7.24262 33.2476C6.80152 33.2476 6.44394 33.6051 6.44394 34.0462C6.44394 34.4873 6.80152 34.8449 7.24262 34.8449Z"/>
    <path d="M7.24262 8.68916C7.68371 8.68916 8.04129 8.33158 8.04129 7.89048C8.04129 7.44938 7.68371 7.0918 7.24262 7.0918C6.80152 7.0918 6.44394 7.44938 6.44394 7.89048C6.44394 8.33158 6.80152 8.68916 7.24262 8.68916Z"/>
    <path d="M24.2303 5.4853C24.6714 5.4853 25.029 5.12772 25.029 4.68662C25.029 4.24552 24.6714 3.88794 24.2303 3.88794C23.7892 3.88794 23.4316 4.24552 23.4316 4.68662C23.4316 5.12772 23.7892 5.4853 24.2303 5.4853Z"/>
    <path d="M1.47205 25.0351C1.91315 25.0351 2.27073 24.6775 2.27073 24.2364C2.27073 23.7953 1.91315 23.4377 1.47205 23.4377C1.03095 23.4377 0.67337 23.7953 0.67337 24.2364C0.67337 24.6775 1.03095 25.0351 1.47205 25.0351Z"/>
    <path d="M35.4476 25.0351C35.8887 25.0351 36.2463 24.6775 36.2463 24.2364C36.2463 23.7953 35.8887 23.4377 35.4476 23.4377C35.0065 23.4377 34.6489 23.7953 34.6489 24.2364C34.6489 24.6775 35.0065 25.0351 35.4476 25.0351Z"/>
    <path d="M1.47205 18.4973C1.91315 18.4973 2.27073 18.1397 2.27073 17.6986C2.27073 17.2575 1.91315 16.8999 1.47205 16.8999C1.03095 16.8999 0.67337 17.2575 0.67337 17.6986C0.67337 18.1397 1.03095 18.4973 1.47205 18.4973Z"/>
    <path d="M35.4476 18.4973C35.8887 18.4973 36.2463 18.1397 36.2463 17.6986C36.2463 17.2575 35.8887 16.8999 35.4476 16.8999C35.0065 16.8999 34.6489 17.2575 34.6489 17.6986C34.6489 18.1397 35.0065 18.4973 35.4476 18.4973Z"/>
    <path d="M6.92373 15.6239C7.65087 15.6239 8.24034 15.0345 8.24034 14.3073C8.24034 13.5802 7.65087 12.9907 6.92373 12.9907C6.19658 12.9907 5.60712 13.5802 5.60712 14.3073C5.60712 15.0345 6.19658 15.6239 6.92373 15.6239Z"/>
    <path d="M12.6887 12.2926C13.4159 12.2926 14.0053 11.7032 14.0053 10.976C14.0053 10.2489 13.4159 9.65942 12.6887 9.65942C11.9616 9.65942 11.3721 10.2489 11.3721 10.976C11.3721 11.7032 11.9616 12.2926 12.6887 12.2926Z"/>
    <path d="M29.9967 28.9469C30.7238 28.9469 31.3133 28.3575 31.3133 27.6303C31.3133 26.9032 30.7238 26.3137 29.9967 26.3137C29.2695 26.3137 28.6801 26.9032 28.6801 27.6303C28.6801 28.3575 29.2695 28.9469 29.9967 28.9469Z"/>
    <path d="M6.92373 28.9469C7.65087 28.9469 8.24034 28.3575 8.24034 27.6303C8.24034 26.9032 7.65087 26.3137 6.92373 26.3137C6.19658 26.3137 5.60712 26.9032 5.60712 27.6303C5.60712 28.3575 6.19658 28.9469 6.92373 28.9469Z"/>
    <path d="M29.9967 22.2846C30.7238 22.2846 31.3133 21.6951 31.3133 20.968C31.3133 20.2408 30.7238 19.6514 29.9967 19.6514C29.2695 19.6514 28.6801 20.2408 28.6801 20.968C28.6801 21.6951 29.2695 22.2846 29.9967 22.2846Z"/>
    <path d="M6.92373 22.2846C7.65087 22.2846 8.24034 21.6951 8.24034 20.968C8.24034 20.2408 7.65087 19.6514 6.92373 19.6514C6.19658 19.6514 5.60712 20.2408 5.60712 20.968C5.60712 21.6951 6.19658 22.2846 6.92373 22.2846Z"/>
    <path d="M29.9967 15.6239C30.7238 15.6239 31.3133 15.0345 31.3133 14.3073C31.3133 13.5802 30.7238 12.9907 29.9967 12.9907C29.2695 12.9907 28.6801 13.5802 28.6801 14.3073C28.6801 15.0345 29.2695 15.6239 29.9967 15.6239Z"/>
    <path d="M18.4603 35.6083C19.1874 35.6083 19.7769 35.0189 19.7769 34.2917C19.7769 33.5646 19.1874 32.9751 18.4603 32.9751C17.7331 32.9751 17.1436 33.5646 17.1436 34.2917C17.1436 35.0189 17.7331 35.6083 18.4603 35.6083Z"/>
    <path d="M24.2252 32.2787C24.9523 32.2787 25.5418 31.6893 25.5418 30.9621C25.5418 30.235 24.9523 29.6455 24.2252 29.6455C23.498 29.6455 22.9086 30.235 22.9086 30.9621C22.9086 31.6893 23.498 32.2787 24.2252 32.2787Z"/>
    <path d="M12.6887 32.2787C13.4159 32.2787 14.0053 31.6893 14.0053 30.9621C14.0053 30.235 13.4159 29.6455 12.6887 29.6455C11.9616 29.6455 11.3721 30.235 11.3721 30.9621C11.3721 31.6893 11.9616 32.2787 12.6887 32.2787Z"/>
    <path d="M24.2252 12.2926C24.9523 12.2926 25.5418 11.7032 25.5418 10.976C25.5418 10.2489 24.9523 9.65942 24.2252 9.65942C23.498 9.65942 22.9086 10.2489 22.9086 10.976C22.9086 11.7032 23.498 12.2926 24.2252 12.2926Z"/>
    <path d="M23.8962 26.1943C25.0495 26.1943 25.9845 25.2594 25.9845 24.1061C25.9845 22.9528 25.0495 22.0178 23.8962 22.0178C22.7429 22.0178 21.808 22.9528 21.808 24.1061C21.808 25.2594 22.7429 26.1943 23.8962 26.1943Z"/>
    <path d="M23.8962 19.9194C25.0495 19.9194 25.9845 18.9845 25.9845 17.8312C25.9845 16.6779 25.0495 15.7429 23.8962 15.7429C22.7429 15.7429 21.808 16.6779 21.808 17.8312C21.808 18.9845 22.7429 19.9194 23.8962 19.9194Z"/>
    <path d="M13.025 26.1943C14.1783 26.1943 15.1132 25.2594 15.1132 24.1061C15.1132 22.9528 14.1783 22.0178 13.025 22.0178C11.8717 22.0178 10.9367 22.9528 10.9367 24.1061C10.9367 25.2594 11.8717 26.1943 13.025 26.1943Z"/>
    <path d="M13.025 19.9194C14.1783 19.9194 15.1132 18.9845 15.1132 17.8312C15.1132 16.6779 14.1783 15.7429 13.025 15.7429C11.8717 15.7429 10.9367 16.6779 10.9367 17.8312C10.9367 18.9845 11.8717 19.9194 13.025 19.9194Z"/>
</svg>
