<svg width="16" height="17" viewBox="0 0 16 17" fill="none" xmlns="http://www.w3.org/2000/svg">
<path d="M14.2777 4.05211L8.6102 0.788495C8.15457 0.534043 7.58782 0.534043 7.1322 0.788495L1.46466 4.05211C0.997918 4.30656 0.708984 4.81546 0.708984 5.33543V11.8516C0.708984 12.3937 0.997918 12.8805 1.45354 13.1349L7.12108 16.3985C7.35445 16.5313 7.61005 16.5977 7.86564 16.5977C8.12124 16.5977 8.37683 16.5313 8.6102 16.3985L14.2666 13.1349C14.7334 12.8805 15.0223 12.3826 15.0223 11.8516V5.33543C15.0223 4.79333 14.7334 4.2955 14.2777 4.05211ZM13.7666 4.84865L10.955 6.41961C10.366 5.58988 9.44366 5.00353 8.37683 4.85971V1.73992L13.7666 4.84865ZM7.86564 11.4091C6.29873 11.4091 5.03187 10.1368 5.03187 8.58798C5.03187 7.02808 6.30985 5.76689 7.86564 5.76689C9.43255 5.76689 10.7105 7.02808 10.7105 8.58798C10.7105 10.1479 9.43255 11.4091 7.86564 11.4091ZM7.43224 1.69567V4.84865C6.4432 4.95928 5.56529 5.45712 4.9652 6.17622L2.28701 4.66058L7.43224 1.69567ZM1.65357 5.37968L4.45401 6.9617C4.22064 7.44848 4.08728 8.00163 4.08728 8.58798C4.08728 9.13007 4.19841 9.63897 4.40955 10.0926L1.65357 11.6414V5.37968ZM2.15365 12.4379L4.88741 10.9002C5.49861 11.6746 6.39875 12.2056 7.43224 12.3273V15.4803L2.15365 12.4379ZM13.7999 12.3162L8.37683 15.436V12.3162C9.477 12.1724 10.4216 11.5529 11.0106 10.6789L13.8443 12.283C13.8332 12.2941 13.8221 12.3052 13.7999 12.3162ZM14.0777 11.3316L11.4329 9.83811C11.5662 9.4509 11.644 9.0305 11.644 8.58798C11.644 8.11226 11.5551 7.66974 11.3995 7.24934L14.0777 5.74476V11.3316Z" fill="white"/>
</svg>
