<svg width="17" height="16" viewBox="0 0 17 16" fill="none" xmlns="http://www.w3.org/2000/svg">
<path d="M16.0453 7.60831C15.6729 7.18611 15.4559 6.74049 15.3614 6.29132C15.4024 6.65455 15.2844 7.02947 15.0628 7.34732C14.6036 8.0063 14.4434 8.82771 14.8348 9.74259C15.2261 10.6576 14.703 11.5524 13.9037 11.6801C12.748 11.8647 12.496 12.3525 12.2114 13.2579C11.9603 14.0562 11.4484 14.6182 10.3093 14.2798C9.21324 13.9541 8.49105 13.9645 7.69824 14.4796C6.90546 14.9946 6.124 14.7015 5.75781 13.8956C5.39163 13.0897 4.66739 12.6149 3.61608 12.4393C2.62673 12.274 2.29421 11.6649 2.51159 10.7155C2.7727 9.57487 2.57828 8.95276 1.88097 8.23564C1.1837 7.51847 1.33534 6.67146 2.13266 6.19532C2.92142 5.65181 3.24422 4.8503 3.19021 3.9336C3.13324 3.37841 3.26836 3.01646 3.5233 2.79223C3.17792 3.06389 2.77202 3.2102 2.28475 3.3497C1.30119 3.63112 0.773188 4.22039 1.22107 5.45523C1.66904 6.69022 1.42011 7.55974 0.880271 8.30913C0.340545 9.05845 0.319741 10.0978 1.34068 10.6304C2.3615 11.1632 2.81491 11.9984 2.924 13.1142C3.03312 14.2302 3.54376 14.8082 4.75299 14.6008C5.96218 14.3932 6.9285 14.6716 7.6193 15.4207C8.31017 16.1698 9.27025 16.2086 9.95121 15.3596C10.6322 14.5107 11.4207 14.1064 12.7337 14.1999C14.0467 14.2934 14.3739 13.3578 14.4446 12.3971C14.5153 11.4362 14.94 10.5621 15.726 10.062C16.512 9.56197 16.803 8.46754 16.0453 7.60831ZM15.4312 4.90737C15.6956 4.02132 15.7655 3.02864 14.1609 2.78289C12.5561 2.53729 12.1822 1.68396 11.841 0.86187C11.4999 0.0396286 10.724 -0.291568 9.62107 0.312688C8.5181 0.916943 7.5233 0.75925 6.45795 0.363525C5.74196 0.0975766 4.86019 0.226863 4.41029 1.44282C4.172 2.08729 3.89292 2.48774 3.55617 2.76398C3.82189 2.55099 4.20521 2.47428 4.64057 2.48585C5.78868 2.51649 6.43299 2.30701 7.15594 1.42179C7.98442 0.407024 8.85818 0.610938 9.38868 1.21882C9.9842 1.90123 10.4361 2.11789 11.5194 1.97616C12.3899 1.86234 13.0745 2.27759 13.2162 3.09211C13.3487 3.85395 13.3604 4.56351 14.5928 5.24924C15.0503 5.50372 15.2774 5.84309 15.3459 6.19921C15.2706 5.76472 15.3056 5.32818 15.4312 4.90737Z" fill="#FFFFFE"/>
</svg>
