<svg width="19" height="19" viewBox="0 0 19 19" fill="none" xmlns="http://www.w3.org/2000/svg">
<path d="M18.1643 9.81007C18.3394 9.81007 18.481 9.66852 18.481 9.49341C18.481 9.31829 18.3394 9.17674 18.1643 9.17674H17.2054C17.1867 8.67324 17.1234 8.16879 17.0104 7.66972L17.9334 7.42241C18.1022 7.37712 18.2026 7.20359 18.1573 7.03449C18.112 6.86539 17.9391 6.76596 17.7694 6.81061L16.8444 7.05856C16.6965 6.58102 16.5034 6.11141 16.2627 5.65509L17.0924 5.17597C17.2441 5.08857 17.296 4.89477 17.2083 4.74341C17.1206 4.59172 16.9261 4.53947 16.7757 4.62751L15.946 5.10663C15.6712 4.66994 15.3608 4.26777 15.0214 3.90107L15.6984 3.22404C15.8222 3.10022 15.8222 2.90009 15.6984 2.77627C15.5746 2.65246 15.3745 2.65246 15.2506 2.77627L14.5752 3.45172C14.1996 3.10434 13.7943 2.79717 13.3677 2.52927L13.8472 1.69897C13.9346 1.54729 13.8826 1.35381 13.731 1.26641C13.5796 1.17901 13.3858 1.23031 13.2984 1.38231L12.8183 2.21387C12.3683 1.97764 11.8984 1.78321 11.4149 1.63374L11.6638 0.704958C11.709 0.536175 11.6087 0.362325 11.4399 0.317042C11.272 0.272392 11.0972 0.372142 11.052 0.540925L10.8031 1.46971C10.3097 1.35761 9.80556 1.29111 9.29762 1.27084V0.310075C9.29762 0.134958 9.15607 -0.0065918 8.98096 -0.0065918C8.80584 -0.0065918 8.66429 0.134958 8.66429 0.310075V1.26926C8.16079 1.28794 7.65634 1.35127 7.15727 1.46432L6.90996 0.540925C6.86499 0.371825 6.69177 0.272075 6.52204 0.317042C6.35326 0.362325 6.25287 0.535858 6.29816 0.704958L6.54611 1.63026C6.06857 1.77814 5.59896 1.97099 5.14264 2.21197L4.66352 1.38231C4.57581 1.22999 4.38169 1.17869 4.23096 1.26641C4.07927 1.35381 4.02734 1.54761 4.11506 1.69897L4.59417 2.52864C4.15749 2.80351 3.75532 3.11384 3.38862 3.45331L2.71159 2.77627C2.58777 2.65246 2.38764 2.65246 2.26382 2.77627C2.14001 2.90009 2.14001 3.10022 2.26382 3.22404L2.93927 3.89949C2.59189 4.27506 2.28472 4.68039 2.01682 5.10694L1.18652 4.62751C1.03516 4.53947 0.841357 4.59172 0.753957 4.74341C0.666557 4.89509 0.71849 5.08857 0.869857 5.17597L1.70142 5.65604C1.46519 6.10602 1.27076 6.57596 1.12129 7.05951L0.192824 6.81061C0.0246737 6.76627 -0.14981 6.86571 -0.195093 7.03449C-0.240376 7.20327 -0.139993 7.37712 0.0287904 7.42241L0.957257 7.67131C0.84484 8.16467 0.77834 8.66881 0.758074 9.17674H-0.202376C-0.377493 9.17674 -0.519043 9.31829 -0.519043 9.49341C-0.519043 9.66852 -0.377493 9.81007 -0.202376 9.81007H0.75649C0.775174 10.3136 0.838507 10.818 0.951557 11.3171L0.0284737 11.5644C-0.14031 11.6097 -0.240693 11.7832 -0.19541 11.9523C-0.157726 12.0939 -0.029793 12.187 0.110174 12.187C0.137407 12.187 0.164957 12.1835 0.192507 12.1762L1.11749 11.9283C1.26537 12.4058 1.45854 12.8754 1.69921 13.3317L0.86954 13.8108C0.718174 13.8982 0.66624 14.0917 0.753957 14.2434C0.812857 14.3451 0.91894 14.4017 1.02851 14.4017C1.08234 14.4017 1.13681 14.3881 1.18652 14.3593L2.01841 13.8789C2.29327 14.3156 2.60234 14.7184 2.94149 15.0851L2.26351 15.7631C2.13969 15.8869 2.13969 16.087 2.26351 16.2109C2.32526 16.2726 2.40632 16.3036 2.48739 16.3036C2.56846 16.3036 2.64952 16.2726 2.71127 16.2109L3.38989 15.5322C3.76546 15.8793 4.16857 16.1884 4.59512 16.456L4.11474 17.2878C4.02734 17.4395 4.07927 17.633 4.23064 17.7204C4.28036 17.7492 4.33482 17.7628 4.38866 17.7628C4.49822 17.7628 4.60462 17.7062 4.66321 17.6045L5.14454 16.771C5.59452 17.0073 6.06382 17.2014 6.54737 17.3512L6.29784 18.2819C6.25256 18.4506 6.35294 18.6245 6.52172 18.6698C6.54927 18.6771 6.57682 18.6805 6.60406 18.6805C6.74371 18.6805 6.87196 18.5874 6.90964 18.4459L7.15917 17.5146C7.65254 17.627 8.15604 17.6941 8.66397 17.7147V18.6767C8.66397 18.8519 8.80552 18.9934 8.98064 18.9934C9.15576 18.9934 9.29731 18.8519 9.29731 18.6767V17.7157C9.80049 17.697 10.3043 17.6321 10.8034 17.519L11.0516 18.4459C11.0893 18.5874 11.2173 18.6805 11.3572 18.6805C11.3845 18.6805 11.412 18.6771 11.4396 18.6698C11.6083 18.6245 11.7087 18.451 11.6634 18.2819L11.4152 17.3553C11.8924 17.2074 12.3617 17.0136 12.8177 16.7729L13.2981 17.6045C13.357 17.7062 13.4631 17.7628 13.5726 17.7628C13.6265 17.7628 13.6809 17.7492 13.7306 17.7204C13.8823 17.633 13.9343 17.4392 13.8465 17.2878L13.3674 16.4582C13.8041 16.1833 14.2063 15.873 14.573 15.5335L15.25 16.2105C15.3118 16.2723 15.3928 16.3033 15.4739 16.3033C15.555 16.3033 15.636 16.2723 15.6978 16.2105C15.8216 16.0867 15.8216 15.8866 15.6978 15.7628L15.0223 15.0873C15.3697 14.7118 15.6769 14.3064 15.9448 13.8799L16.7751 14.3593C16.8248 14.3881 16.8793 14.4017 16.9331 14.4017C17.0427 14.4017 17.1491 14.3451 17.2076 14.2434C17.295 14.0917 17.2431 13.8982 17.0917 13.8108L16.2602 13.3308C16.4964 12.8808 16.6908 12.4109 16.8403 11.9273L17.7688 12.1762C17.7963 12.1835 17.8239 12.187 17.8511 12.187C17.9908 12.187 18.119 12.0939 18.1567 11.9523C18.202 11.7835 18.1016 11.6097 17.9328 11.5644L17.0043 11.3155C17.1164 10.8218 17.1829 10.318 17.2035 9.81007H18.1643ZM12.781 16.075C9.24379 18.1169 4.73097 16.9826 2.56466 13.5635L6.14172 11.4982C6.81021 12.4454 7.88276 12.9755 8.98729 12.9755C9.57756 12.9755 10.1757 12.8254 10.7223 12.5097C11.1736 12.249 11.5412 11.9001 11.823 11.4995L15.3963 13.5629C14.7604 14.5686 13.8811 15.4401 12.781 16.075ZM5.18096 2.91181C6.28106 2.27657 7.47521 1.95231 8.66429 1.90481V6.02908C8.17662 6.07277 7.69086 6.21686 7.23961 6.47716C5.66894 7.38409 5.07361 9.33729 5.82031 10.9526L2.24799 13.0151C0.370157 9.42912 1.64379 4.95367 5.18096 2.91181ZM10.4056 11.9612C9.04461 12.7465 7.29851 12.2785 6.51317 10.9181C5.72784 9.55737 6.19556 7.81128 7.55627 7.02563C8.91636 6.23966 10.6631 6.70769 11.4487 8.06872C12.2341 9.42944 11.7664 11.1755 10.4056 11.9612ZM12.1397 10.951C12.596 9.95859 12.5837 8.76792 11.9975 7.75206C11.4107 6.73619 10.3857 6.13041 9.29794 6.02908V1.90576C11.8085 2.01437 14.2158 3.35989 15.5626 5.69341C16.91 8.02693 16.8732 10.7845 15.7117 13.0138L12.1397 10.951Z" fill="white"/>
</svg>
