<svg width="17" height="14" viewBox="0 0 17 14" fill="none" xmlns="http://www.w3.org/2000/svg">
<path d="M14.9463 1.95596C14.8555 0.863132 13.9179 0.0065918 12.7988 0.0065918H2.66649C1.48691 0.0065918 0.519043 0.951739 0.519043 2.10364V11.88C0.519043 13.0319 1.48691 13.9771 2.66649 13.9771H14.3413C15.5209 13.9771 16.4888 13.0319 16.4888 11.88V3.99393C16.519 3.01925 15.8536 2.19225 14.9463 1.95596ZM2.66649 0.981275H12.7686C13.313 0.981275 13.7667 1.36524 13.8877 1.86735H2.66649C2.24305 1.86735 1.84986 1.98549 1.51715 2.19225V2.10364C1.51715 1.48338 2.03133 0.981275 2.66649 0.981275ZM14.3716 13.0024H2.66649C2.03133 13.0024 1.51715 12.5003 1.51715 11.88V3.99393C1.51715 3.37368 2.03133 2.87157 2.66649 2.87157H14.3413C14.9765 2.87157 15.4907 3.37368 15.4907 3.99393V5.70701H12.2846C11.0143 5.70701 9.95572 6.71123 9.95572 7.98127C9.95572 9.25132 10.9841 10.2555 12.2846 10.2555H15.4907V11.9095C15.5209 12.5003 15.0068 13.0024 14.3716 13.0024ZM15.5209 9.25132H12.2846C11.5587 9.25132 10.9841 8.69014 10.9841 7.98127C10.9841 7.27241 11.5587 6.71123 12.2846 6.71123H15.4907V9.25132H15.5209Z" fill="white"/>
</svg>
